<svg xmlns="http://www.w3.org/2000/svg" width="880" height="460" viewBox="0 0 880 460" role="img" aria-label="Idle footprint (RSS)">
  <rect x="0" y="0" width="880" height="460" fill="#ffffff"/>
  <defs>
    <pattern id="hatch" width="6" height="6" patternUnits="userSpaceOnUse" patternTransform="rotate(45)">
      <line x1="0" y1="0" x2="0" y2="6" stroke="#ffffff" stroke-width="2" stroke-opacity="0.6"/>
    </pattern>
    <pattern id="dots" width="5" height="5" patternUnits="userSpaceOnUse">
      <circle cx="1.5" cy="1.5" r="1" fill="#ffffff" fill-opacity="0.7"/>
    </pattern>
  </defs>
  <text x="440" y="28" text-anchor="middle" font-family="sans-serif" font-size="18" font-weight="bold" fill="#0f172a">Idle footprint (RSS)</text>
  <text x="440" y="48" text-anchor="middle" font-family="sans-serif" font-size="12" fill="#64748b">resources  ·  (MiB)</text>

  <line x1="70" y1="374.0" x2="680" y2="374.0" stroke="#e2e8f0" stroke-width="1"/>
  <text x="62" y="378.0" text-anchor="end" font-family="sans-serif" font-size="11" fill="#64748b">0</text>
  <line x1="70" y1="312.0" x2="680" y2="312.0" stroke="#e2e8f0" stroke-width="1"/>
  <text x="62" y="316.0" text-anchor="end" font-family="sans-serif" font-size="11" fill="#64748b">857.6</text>
  <line x1="70" y1="250.0" x2="680" y2="250.0" stroke="#e2e8f0" stroke-width="1"/>
  <text x="62" y="254.0" text-anchor="end" font-family="sans-serif" font-size="11" fill="#64748b">1,715</text>
  <line x1="70" y1="188.0" x2="680" y2="188.0" stroke="#e2e8f0" stroke-width="1"/>
  <text x="62" y="192.0" text-anchor="end" font-family="sans-serif" font-size="11" fill="#64748b">2,573</text>
  <line x1="70" y1="126.0" x2="680" y2="126.0" stroke="#e2e8f0" stroke-width="1"/>
  <text x="62" y="130.0" text-anchor="end" font-family="sans-serif" font-size="11" fill="#64748b">3,430</text>
  <line x1="70" y1="64.0" x2="680" y2="64.0" stroke="#e2e8f0" stroke-width="1"/>
  <text x="62" y="68.0" text-anchor="end" font-family="sans-serif" font-size="11" fill="#64748b">4,288</text>
  <line x1="70" y1="64" x2="70" y2="374" stroke="#94a3b8" stroke-width="1.5"/>
  <line x1="70" y1="374" x2="680" y2="374" stroke="#94a3b8" stroke-width="1.5"/>
  <text x="18" y="219" text-anchor="middle" font-family="sans-serif" font-size="12" fill="#475569" transform="rotate(-90 18 219)">MiB</text>
  <rect x="86.6" y="373.9" width="54.0" height="0.1" fill="#0d9488" fill-opacity="1" stroke="#0d9488" stroke-width="1.5"  rx="2"/>
  <text x="113.6" y="351.9" text-anchor="middle" font-family="sans-serif" font-size="14" fill="#16a34a">&#9733;</text>
  <text x="113.6" y="367.9" text-anchor="middle" font-family="sans-serif" font-size="12" font-weight="bold" fill="#1e293b">2.01</text>
  <text x="113.6" y="390" text-anchor="end" font-family="sans-serif" font-size="11" fill="#334155" transform="rotate(-28 113.6 390)">grobase-nano</text>
  <rect x="173.7" y="351.6" width="54.0" height="22.4" fill="#0ea5e9" fill-opacity="1" stroke="#0ea5e9" stroke-width="1.5"  rx="2"/>
  <text x="200.7" y="345.6" text-anchor="middle" font-family="sans-serif" font-size="12" font-weight="normal" fill="#1e293b">309.8</text>
  <text x="200.7" y="390" text-anchor="end" font-family="sans-serif" font-size="11" fill="#334155" transform="rotate(-28 200.7 390)">grobase-basic</text>
  <rect x="260.8" y="314.6" width="54.0" height="59.4" fill="#2563eb" fill-opacity="1" stroke="#2563eb" stroke-width="1.5"  rx="2"/>
  <text x="287.9" y="308.6" text-anchor="middle" font-family="sans-serif" font-size="12" font-weight="normal" fill="#1e293b">821.7</text>
  <text x="287.9" y="390" text-anchor="end" font-family="sans-serif" font-size="11" fill="#334155" transform="rotate(-28 287.9 390)">grobase-essential</text>
  <rect x="348.0" y="288.1" width="54.0" height="85.9" fill="#7c3aed" fill-opacity="1" stroke="#7c3aed" stroke-width="1.5"  rx="2"/>
  <text x="375.0" y="282.1" text-anchor="middle" font-family="sans-serif" font-size="12" font-weight="normal" fill="#1e293b">1,188</text>
  <text x="375.0" y="390" text-anchor="end" font-family="sans-serif" font-size="11" fill="#334155" transform="rotate(-28 375.0 390)">grobase-pro</text>
  <rect x="435.1" y="111.3" width="54.0" height="262.7" fill="#9333ea" fill-opacity="1" stroke="#9333ea" stroke-width="1.5"  rx="2"/>
  <text x="462.1" y="105.3" text-anchor="middle" font-family="sans-serif" font-size="12" font-weight="normal" fill="#1e293b">3,634</text>
  <text x="462.1" y="390" text-anchor="end" font-family="sans-serif" font-size="11" fill="#334155" transform="rotate(-28 462.1 390)">grobase-max</text>
  <rect x="522.3" y="373.1" width="54.0" height="0.9" fill="#f59e0b" fill-opacity="1" stroke="#f59e0b" stroke-width="1.5"  rx="2"/>
  <text x="549.3" y="367.1" text-anchor="middle" font-family="sans-serif" font-size="12" font-weight="normal" fill="#1e293b">13.1</text>
  <text x="549.3" y="390" text-anchor="end" font-family="sans-serif" font-size="11" fill="#334155" transform="rotate(-28 549.3 390)">pocketbase</text>
  <rect x="609.4" y="165.5" width="54.0" height="208.5" fill="#16a34a" fill-opacity="1" stroke="#16a34a" stroke-width="1.5"  rx="2"/>
  <text x="636.4" y="159.5" text-anchor="middle" font-family="sans-serif" font-size="12" font-weight="normal" fill="#1e293b">2,884</text>
  <text x="636.4" y="390" text-anchor="end" font-family="sans-serif" font-size="11" fill="#334155" transform="rotate(-28 636.4 390)">supabase-selfhost</text>
  <text x="698" y="68" font-family="sans-serif" font-size="12" font-weight="bold" fill="#0f172a">source</text>
  <rect x="698" y="77" width="22" height="13" fill="#475569" stroke="#475569" stroke-width="1" />
  <text x="726" y="88" font-family="sans-serif" font-size="11" fill="#334155">measured</text>
  <rect x="698" y="97" width="22" height="13" fill="#cbd5e1" stroke="#475569" stroke-width="1" stroke-dasharray="6 4"/>
  <rect x="698" y="97" width="22" height="13" fill="url(#hatch)"/>
  <text x="726" y="108" font-family="sans-serif" font-size="11" fill="#334155">published (pub)</text>
  <rect x="698" y="117" width="22" height="13" fill="#cbd5e1" stroke="#475569" stroke-width="1" stroke-dasharray="2 3"/>
  <rect x="698" y="117" width="22" height="13" fill="url(#dots)"/>
  <text x="726" y="128" font-family="sans-serif" font-size="11" fill="#334155">modeled (model)</text>
  <text x="698" y="214" font-family="sans-serif" font-size="11" fill="#16a34a">&#9733; best: grobase-nano</text>
  <text x="698" y="232" font-family="sans-serif" font-size="10" fill="#64748b">(lower is better)</text>

  <text x="12" y="450" font-family="sans-serif" font-size="10" fill="#94a3b8">n/a (omitted): supabase-cloud (Managed cloud — no self-host RSS to measure; vendor does not publish a per-deployment RSS figure.); firebase (Fully managed serverless — no self-host process, RSS is architecturally undefined.)</text>
</svg>