<svg xmlns="http://www.w3.org/2000/svg" width="880" height="460" viewBox="0 0 880 460" role="img" aria-label="Insert p95 latency (single row)">
  <rect x="0" y="0" width="880" height="460" fill="#ffffff"/>
  <defs>
    <pattern id="hatch" width="6" height="6" patternUnits="userSpaceOnUse" patternTransform="rotate(45)">
      <line x1="0" y1="0" x2="0" y2="6" stroke="#ffffff" stroke-width="2" stroke-opacity="0.6"/>
    </pattern>
    <pattern id="dots" width="5" height="5" patternUnits="userSpaceOnUse">
      <circle cx="1.5" cy="1.5" r="1" fill="#ffffff" fill-opacity="0.7"/>
    </pattern>
  </defs>
  <text x="440" y="28" text-anchor="middle" font-family="sans-serif" font-size="18" font-weight="bold" fill="#0f172a">Insert p95 latency (single row)</text>
  <text x="440" y="48" text-anchor="middle" font-family="sans-serif" font-size="12" fill="#64748b">speed  ·  (ms)</text>

  <line x1="70" y1="374.0" x2="680" y2="374.0" stroke="#e2e8f0" stroke-width="1"/>
  <text x="62" y="378.0" text-anchor="end" font-family="sans-serif" font-size="11" fill="#64748b">0</text>
  <line x1="70" y1="312.0" x2="680" y2="312.0" stroke="#e2e8f0" stroke-width="1"/>
  <text x="62" y="316.0" text-anchor="end" font-family="sans-serif" font-size="11" fill="#64748b">2.15</text>
  <line x1="70" y1="250.0" x2="680" y2="250.0" stroke="#e2e8f0" stroke-width="1"/>
  <text x="62" y="254.0" text-anchor="end" font-family="sans-serif" font-size="11" fill="#64748b">4.29</text>
  <line x1="70" y1="188.0" x2="680" y2="188.0" stroke="#e2e8f0" stroke-width="1"/>
  <text x="62" y="192.0" text-anchor="end" font-family="sans-serif" font-size="11" fill="#64748b">6.44</text>
  <line x1="70" y1="126.0" x2="680" y2="126.0" stroke="#e2e8f0" stroke-width="1"/>
  <text x="62" y="130.0" text-anchor="end" font-family="sans-serif" font-size="11" fill="#64748b">8.58</text>
  <line x1="70" y1="64.0" x2="680" y2="64.0" stroke="#e2e8f0" stroke-width="1"/>
  <text x="62" y="68.0" text-anchor="end" font-family="sans-serif" font-size="11" fill="#64748b">10.7</text>
  <line x1="70" y1="64" x2="70" y2="374" stroke="#94a3b8" stroke-width="1.5"/>
  <line x1="70" y1="374" x2="680" y2="374" stroke="#94a3b8" stroke-width="1.5"/>
  <text x="18" y="219" text-anchor="middle" font-family="sans-serif" font-size="12" fill="#475569" transform="rotate(-90 18 219)">ms</text>
  <rect x="135.7" y="339.3" width="72.0" height="34.7" fill="#0d9488" fill-opacity="1" stroke="#0d9488" stroke-width="1.5"  rx="2"/>
  <text x="171.7" y="317.3" text-anchor="middle" font-family="sans-serif" font-size="14" fill="#16a34a">&#9733;</text>
  <text x="171.7" y="333.3" text-anchor="middle" font-family="sans-serif" font-size="12" font-weight="bold" fill="#1e293b">1.2</text>
  <text x="171.7" y="390" text-anchor="end" font-family="sans-serif" font-size="11" fill="#334155" transform="rotate(-28 171.7 390)">grobase-nano</text>
  <rect x="339.0" y="111.3" width="72.0" height="262.7" fill="#2563eb" fill-opacity="1" stroke="#2563eb" stroke-width="1.5"  rx="2"/>
  <text x="375.0" y="105.3" text-anchor="middle" font-family="sans-serif" font-size="12" font-weight="normal" fill="#1e293b">9.09</text>
  <text x="375.0" y="390" text-anchor="end" font-family="sans-serif" font-size="11" fill="#334155" transform="rotate(-28 375.0 390)">grobase-essential</text>
  <rect x="542.3" y="241.1" width="72.0" height="132.9" fill="#f59e0b" fill-opacity="1" stroke="#f59e0b" stroke-width="1.5"  rx="2"/>
  <text x="578.3" y="235.1" text-anchor="middle" font-family="sans-serif" font-size="12" font-weight="normal" fill="#1e293b">4.6</text>
  <text x="578.3" y="390" text-anchor="end" font-family="sans-serif" font-size="11" fill="#334155" transform="rotate(-28 578.3 390)">pocketbase</text>
  <text x="698" y="68" font-family="sans-serif" font-size="12" font-weight="bold" fill="#0f172a">source</text>
  <rect x="698" y="77" width="22" height="13" fill="#475569" stroke="#475569" stroke-width="1" />
  <text x="726" y="88" font-family="sans-serif" font-size="11" fill="#334155">measured</text>
  <rect x="698" y="97" width="22" height="13" fill="#cbd5e1" stroke="#475569" stroke-width="1" stroke-dasharray="6 4"/>
  <rect x="698" y="97" width="22" height="13" fill="url(#hatch)"/>
  <text x="726" y="108" font-family="sans-serif" font-size="11" fill="#334155">published (pub)</text>
  <rect x="698" y="117" width="22" height="13" fill="#cbd5e1" stroke="#475569" stroke-width="1" stroke-dasharray="2 3"/>
  <rect x="698" y="117" width="22" height="13" fill="url(#dots)"/>
  <text x="726" y="128" font-family="sans-serif" font-size="11" fill="#334155">modeled (model)</text>
  <text x="698" y="214" font-family="sans-serif" font-size="11" fill="#16a34a">&#9733; best: grobase-nano</text>
  <text x="698" y="232" font-family="sans-serif" font-size="10" fill="#64748b">(lower is better)</text>

  <text x="12" y="450" font-family="sans-serif" font-size="10" fill="#94a3b8">n/a (omitted): grobase-basic (No dedicated basic-tier insert-p95 artifact.); grobase-pro (No dedicated pro-tier insert-p95 artifact.); grobase-max (No dedicated max-tier insert-p95 artifact.); supabase-selfhost (The head-to-head artifact measured READ p50/p95 only; no insert-p95 figure was captured for Supabase. Left na rather than invent one.); supabase-cloud (Not measured; no comparable published figure.); firebase (Not measured; Firestore writes are not a comparable single-row relational insert.)</text>
</svg>