<svg xmlns="http://www.w3.org/2000/svg" viewBox="0 0 1280 720" width="1280" height="720" role="img" aria-label="Sopelana, Bizkaia">
  <defs>
    <linearGradient id="g5721sky" x1="0" y1="0" x2="0" y2="1">
      <stop offset="0" stop-color="#0a2a45"/><stop offset="1" stop-color="#f6b35c"/>
    </linearGradient>
    <radialGradient id="g5721sun" cx="50%" cy="50%" r="50%">
      <stop offset="0" stop-color="#ffd98a" stop-opacity="0.95"/>
      <stop offset="1" stop-color="#ffd98a" stop-opacity="0"/>
    </radialGradient>
  </defs>
  <rect width="1280" height="720" fill="url(#g5721sky)"/>
  <circle cx="684" cy="159" r="160" fill="url(#g5721sun)"/>
  <circle cx="684" cy="159" r="54" fill="#ffd98a" opacity="0.9"/>
  <rect y="318" width="1280" height="402" fill="#1f6f8f" opacity="0.55"/>
  <path d="M0 358 C 96 342 224 374 320 358 C 416 374 544 342 640 358 C 736 342 864 374 960 358 C 1056 374 1184 342 1280 358 L 1280 720 L 0 720 Z" fill="#1f6f8f" opacity="0.85"/><path d="M0 428 C 96 450 224 406 320 428 C 416 406 544 450 640 428 C 736 450 864 406 960 428 C 1056 406 1184 450 1280 428 L 1280 720 L 0 720 Z" fill="#2b9bb5" opacity="0.8"/><path d="M0 518 C 96 488 224 548 320 518 C 416 548 544 488 640 518 C 736 488 864 548 960 518 C 1056 548 1184 488 1280 518 L 1280 720 L 0 720 Z" fill="#2b9bb5" opacity="0.6"/><path d="M0 618 C 96 658 224 578 320 618 C 416 578 544 658 640 618 C 736 658 864 578 960 618 C 1056 578 1184 658 1280 618 L 1280 720 L 0 720 Z" fill="#eaf7fb" opacity="0.5"/>
  <text x="48" y="624" font-family="DM Sans, system-ui, sans-serif" font-size="26" font-weight="700" fill="#ffffff" opacity="0.85" letter-spacing="6">BIZKAIA</text>
  <text x="46" y="676" font-family="DM Sans, system-ui, sans-serif" font-size="58" font-weight="900" fill="#ffffff">Sopelana</text>
</svg>