<svg xmlns="http://www.w3.org/2000/svg" viewBox="0 0 1280 720" width="1280" height="720" role="img" aria-label="Somo, Cantabria">
  <defs>
    <linearGradient id="g1367sky" x1="0" y1="0" x2="0" y2="1">
      <stop offset="0" stop-color="#073043"/><stop offset="1" stop-color="#ffd27a"/>
    </linearGradient>
    <radialGradient id="g1367sun" cx="50%" cy="50%" r="50%">
      <stop offset="0" stop-color="#fff1c2" stop-opacity="0.95"/>
      <stop offset="1" stop-color="#fff1c2" stop-opacity="0"/>
    </radialGradient>
  </defs>
  <rect width="1280" height="720" fill="url(#g1367sky)"/>
  <circle cx="633" cy="92" r="160" fill="url(#g1367sun)"/>
  <circle cx="633" cy="92" r="54" fill="#fff1c2" opacity="0.9"/>
  <rect y="244" width="1280" height="476" fill="#0d6178" opacity="0.55"/>
  <path d="M0 284 C 96 268 224 300 320 284 C 416 300 544 268 640 284 C 736 268 864 300 960 284 C 1056 300 1184 268 1280 284 L 1280 720 L 0 720 Z" fill="#0d6178" opacity="0.85"/><path d="M0 354 C 96 376 224 332 320 354 C 416 332 544 376 640 354 C 736 376 864 332 960 354 C 1056 332 1184 376 1280 354 L 1280 720 L 0 720 Z" fill="#28a7c0" opacity="0.8"/><path d="M0 444 C 96 414 224 474 320 444 C 416 474 544 414 640 444 C 736 414 864 474 960 444 C 1056 474 1184 414 1280 444 L 1280 720 L 0 720 Z" fill="#28a7c0" opacity="0.6"/><path d="M0 544 C 96 584 224 504 320 544 C 416 504 544 584 640 544 C 736 584 864 504 960 544 C 1056 504 1184 584 1280 544 L 1280 720 L 0 720 Z" fill="#ffffff" opacity="0.5"/>
  <text x="48" y="624" font-family="DM Sans, system-ui, sans-serif" font-size="26" font-weight="700" fill="#ffffff" opacity="0.85" letter-spacing="6">CANTABRIA</text>
  <text x="46" y="676" font-family="DM Sans, system-ui, sans-serif" font-size="58" font-weight="900" fill="#ffffff">Somo</text>
</svg>