<svg xmlns="http://www.w3.org/2000/svg" viewBox="0 0 1280 720" width="1280" height="720" role="img" aria-label="Nemina, A Coruna">
  <defs>
    <linearGradient id="g4197sky" x1="0" y1="0" x2="0" y2="1">
      <stop offset="0" stop-color="#1a2c4a"/><stop offset="1" stop-color="#f3a05a"/>
    </linearGradient>
    <radialGradient id="g4197sun" cx="50%" cy="50%" r="50%">
      <stop offset="0" stop-color="#ffe1a3" stop-opacity="0.95"/>
      <stop offset="1" stop-color="#ffe1a3" stop-opacity="0"/>
    </radialGradient>
  </defs>
  <rect width="1280" height="720" fill="url(#g4197sky)"/>
  <circle cx="329" cy="191" r="160" fill="url(#g4197sun)"/>
  <circle cx="329" cy="191" r="54" fill="#ffe1a3" opacity="0.9"/>
  <rect y="323" width="1280" height="397" fill="#234e6e" opacity="0.55"/>
  <path d="M0 363 C 96 347 224 379 320 363 C 416 379 544 347 640 363 C 736 347 864 379 960 363 C 1056 379 1184 347 1280 363 L 1280 720 L 0 720 Z" fill="#234e6e" opacity="0.85"/><path d="M0 433 C 96 455 224 411 320 433 C 416 411 544 455 640 433 C 736 455 864 411 960 433 C 1056 411 1184 455 1280 433 L 1280 720 L 0 720 Z" fill="#3f97b8" opacity="0.8"/><path d="M0 523 C 96 493 224 553 320 523 C 416 553 544 493 640 523 C 736 493 864 553 960 523 C 1056 553 1184 493 1280 523 L 1280 720 L 0 720 Z" fill="#3f97b8" opacity="0.6"/><path d="M0 623 C 96 663 224 583 320 623 C 416 583 544 663 640 623 C 736 663 864 583 960 623 C 1056 583 1184 663 1280 623 L 1280 720 L 0 720 Z" fill="#eef9fd" opacity="0.5"/>
  <text x="48" y="624" font-family="DM Sans, system-ui, sans-serif" font-size="26" font-weight="700" fill="#ffffff" opacity="0.85" letter-spacing="6">A CORUNA</text>
  <text x="46" y="676" font-family="DM Sans, system-ui, sans-serif" font-size="58" font-weight="900" fill="#ffffff">Nemina · 1</text>
</svg>