<svg xmlns="http://www.w3.org/2000/svg" viewBox="0 0 1280 720" width="1280" height="720" role="img" aria-label="Laga, Bizkaia">
  <defs>
    <linearGradient id="g280sky" x1="0" y1="0" x2="0" y2="1">
      <stop offset="0" stop-color="#0c1e33"/><stop offset="1" stop-color="#caa6d6"/>
    </linearGradient>
    <radialGradient id="g280sun" cx="50%" cy="50%" r="50%">
      <stop offset="0" stop-color="#ffd9ec" stop-opacity="0.95"/>
      <stop offset="1" stop-color="#ffd9ec" stop-opacity="0"/>
    </radialGradient>
  </defs>
  <rect width="1280" height="720" fill="url(#g280sky)"/>
  <circle cx="220" cy="136" r="160" fill="url(#g280sun)"/>
  <circle cx="220" cy="136" r="54" fill="#ffd9ec" opacity="0.9"/>
  <rect y="273" width="1280" height="447" fill="#1d4f6c" opacity="0.55"/>
  <path d="M0 313 C 96 329 224 297 320 313 C 416 297 544 329 640 313 C 736 329 864 297 960 313 C 1056 297 1184 329 1280 313 L 1280 720 L 0 720 Z" fill="#1d4f6c" opacity="0.85"/><path d="M0 383 C 96 361 224 405 320 383 C 416 405 544 361 640 383 C 736 361 864 405 960 383 C 1056 405 1184 361 1280 383 L 1280 720 L 0 720 Z" fill="#368fad" opacity="0.8"/><path d="M0 473 C 96 503 224 443 320 473 C 416 443 544 503 640 473 C 736 503 864 443 960 473 C 1056 443 1184 503 1280 473 L 1280 720 L 0 720 Z" fill="#368fad" opacity="0.6"/><path d="M0 573 C 96 533 224 613 320 573 C 416 613 544 533 640 573 C 736 533 864 613 960 573 C 1056 613 1184 533 1280 573 L 1280 720 L 0 720 Z" fill="#f4fbfe" opacity="0.5"/>
  <text x="48" y="624" font-family="DM Sans, system-ui, sans-serif" font-size="26" font-weight="700" fill="#ffffff" opacity="0.85" letter-spacing="6">BIZKAIA</text>
  <text x="46" y="676" font-family="DM Sans, system-ui, sans-serif" font-size="58" font-weight="900" fill="#ffffff">Laga</text>
</svg>