<svg xmlns="http://www.w3.org/2000/svg" viewBox="0 0 1280 720" width="1280" height="720" role="img" aria-label="El Palmar, Cadiz">
  <defs>
    <linearGradient id="g2417sky" x1="0" y1="0" x2="0" y2="1">
      <stop offset="0" stop-color="#073043"/><stop offset="1" stop-color="#ffd27a"/>
    </linearGradient>
    <radialGradient id="g2417sun" cx="50%" cy="50%" r="50%">
      <stop offset="0" stop-color="#fff1c2" stop-opacity="0.95"/>
      <stop offset="1" stop-color="#fff1c2" stop-opacity="0"/>
    </radialGradient>
  </defs>
  <rect width="1280" height="720" fill="url(#g2417sky)"/>
  <circle cx="739" cy="157" r="160" fill="url(#g2417sun)"/>
  <circle cx="739" cy="157" r="54" fill="#fff1c2" opacity="0.9"/>
  <rect y="314" width="1280" height="406" fill="#0d6178" opacity="0.55"/>
  <path d="M0 354 C 96 338 224 370 320 354 C 416 370 544 338 640 354 C 736 338 864 370 960 354 C 1056 370 1184 338 1280 354 L 1280 720 L 0 720 Z" fill="#0d6178" opacity="0.85"/><path d="M0 424 C 96 446 224 402 320 424 C 416 402 544 446 640 424 C 736 446 864 402 960 424 C 1056 402 1184 446 1280 424 L 1280 720 L 0 720 Z" fill="#28a7c0" opacity="0.8"/><path d="M0 514 C 96 484 224 544 320 514 C 416 544 544 484 640 514 C 736 484 864 544 960 514 C 1056 544 1184 484 1280 514 L 1280 720 L 0 720 Z" fill="#28a7c0" opacity="0.6"/><path d="M0 614 C 96 654 224 574 320 614 C 416 574 544 654 640 614 C 736 654 864 574 960 614 C 1056 574 1184 654 1280 614 L 1280 720 L 0 720 Z" fill="#ffffff" opacity="0.5"/>
  <text x="48" y="624" font-family="DM Sans, system-ui, sans-serif" font-size="26" font-weight="700" fill="#ffffff" opacity="0.85" letter-spacing="6">CADIZ</text>
  <text x="46" y="676" font-family="DM Sans, system-ui, sans-serif" font-size="58" font-weight="900" fill="#ffffff">El Palmar · 2</text>
</svg>