<svg xmlns="http://www.w3.org/2000/svg" viewBox="0 0 1280 720" width="1280" height="720" role="img" aria-label="Nemina, A Coruna">
  <defs>
    <linearGradient id="g1236sky" x1="0" y1="0" x2="0" y2="1">
      <stop offset="0" stop-color="#1a2c4a"/><stop offset="1" stop-color="#f3a05a"/>
    </linearGradient>
    <radialGradient id="g1236sun" cx="50%" cy="50%" r="50%">
      <stop offset="0" stop-color="#ffe1a3" stop-opacity="0.95"/>
      <stop offset="1" stop-color="#ffe1a3" stop-opacity="0"/>
    </radialGradient>
  </defs>
  <rect width="1280" height="720" fill="url(#g1236sky)"/>
  <circle cx="353" cy="109" r="160" fill="url(#g1236sun)"/>
  <circle cx="353" cy="109" r="54" fill="#ffe1a3" opacity="0.9"/>
  <rect y="279" width="1280" height="441" fill="#234e6e" opacity="0.55"/>
  <path d="M0 319 C 96 303 224 335 320 319 C 416 335 544 303 640 319 C 736 303 864 335 960 319 C 1056 335 1184 303 1280 319 L 1280 720 L 0 720 Z" fill="#234e6e" opacity="0.85"/><path d="M0 389 C 96 411 224 367 320 389 C 416 367 544 411 640 389 C 736 411 864 367 960 389 C 1056 367 1184 411 1280 389 L 1280 720 L 0 720 Z" fill="#3f97b8" opacity="0.8"/><path d="M0 479 C 96 449 224 509 320 479 C 416 509 544 449 640 479 C 736 449 864 509 960 479 C 1056 509 1184 449 1280 479 L 1280 720 L 0 720 Z" fill="#3f97b8" opacity="0.6"/><path d="M0 579 C 96 619 224 539 320 579 C 416 539 544 619 640 579 C 736 619 864 539 960 579 C 1056 539 1184 619 1280 579 L 1280 720 L 0 720 Z" fill="#eef9fd" opacity="0.5"/>
  <text x="48" y="624" font-family="DM Sans, system-ui, sans-serif" font-size="26" font-weight="700" fill="#ffffff" opacity="0.85" letter-spacing="6">A CORUNA</text>
  <text x="46" y="676" font-family="DM Sans, system-ui, sans-serif" font-size="58" font-weight="900" fill="#ffffff">Nemina</text>
</svg>