<svg xmlns="http://www.w3.org/2000/svg" viewBox="0 0 1280 720" width="1280" height="720" role="img" aria-label="La Zurriola, Gipuzkoa">
  <defs>
    <linearGradient id="g210sky" x1="0" y1="0" x2="0" y2="1">
      <stop offset="0" stop-color="#1a2c4a"/><stop offset="1" stop-color="#f3a05a"/>
    </linearGradient>
    <radialGradient id="g210sun" cx="50%" cy="50%" r="50%">
      <stop offset="0" stop-color="#ffe1a3" stop-opacity="0.95"/>
      <stop offset="1" stop-color="#ffe1a3" stop-opacity="0"/>
    </radialGradient>
  </defs>
  <rect width="1280" height="720" fill="url(#g210sky)"/>
  <circle cx="873" cy="64" r="160" fill="url(#g210sun)"/>
  <circle cx="873" cy="64" r="54" fill="#ffe1a3" opacity="0.9"/>
  <rect y="249" width="1280" height="471" fill="#234e6e" opacity="0.55"/>
  <path d="M0 289 C 96 273 224 305 320 289 C 416 305 544 273 640 289 C 736 273 864 305 960 289 C 1056 305 1184 273 1280 289 L 1280 720 L 0 720 Z" fill="#234e6e" opacity="0.85"/><path d="M0 359 C 96 381 224 337 320 359 C 416 337 544 381 640 359 C 736 381 864 337 960 359 C 1056 337 1184 381 1280 359 L 1280 720 L 0 720 Z" fill="#3f97b8" opacity="0.8"/><path d="M0 449 C 96 419 224 479 320 449 C 416 479 544 419 640 449 C 736 419 864 479 960 449 C 1056 479 1184 419 1280 449 L 1280 720 L 0 720 Z" fill="#3f97b8" opacity="0.6"/><path d="M0 549 C 96 589 224 509 320 549 C 416 509 544 589 640 549 C 736 589 864 509 960 549 C 1056 509 1184 589 1280 549 L 1280 720 L 0 720 Z" fill="#eef9fd" opacity="0.5"/>
  <text x="48" y="624" font-family="DM Sans, system-ui, sans-serif" font-size="26" font-weight="700" fill="#ffffff" opacity="0.85" letter-spacing="6">GIPUZKOA</text>
  <text x="46" y="676" font-family="DM Sans, system-ui, sans-serif" font-size="58" font-weight="900" fill="#ffffff">La Zurriola · 1</text>
</svg>