<svg xmlns="http://www.w3.org/2000/svg" viewBox="0 0 1280 720" width="1280" height="720" role="img" aria-label="Pantin, A Coruna">
  <defs>
    <linearGradient id="g6770sky" x1="0" y1="0" x2="0" y2="1">
      <stop offset="0" stop-color="#062436"/><stop offset="1" stop-color="#7fb7c9"/>
    </linearGradient>
    <radialGradient id="g6770sun" cx="50%" cy="50%" r="50%">
      <stop offset="0" stop-color="#dff3f8" stop-opacity="0.95"/>
      <stop offset="1" stop-color="#dff3f8" stop-opacity="0"/>
    </radialGradient>
  </defs>
  <rect width="1280" height="720" fill="url(#g6770sky)"/>
  <circle cx="548" cy="255" r="160" fill="url(#g6770sun)"/>
  <circle cx="548" cy="255" r="54" fill="#dff3f8" opacity="0.9"/>
  <rect y="331" width="1280" height="389" fill="#0f5a73" opacity="0.55"/>
  <path d="M0 371 C 96 387 224 355 320 371 C 416 355 544 387 640 371 C 736 387 864 355 960 371 C 1056 355 1184 387 1280 371 L 1280 720 L 0 720 Z" fill="#0f5a73" opacity="0.85"/><path d="M0 441 C 96 419 224 463 320 441 C 416 463 544 419 640 441 C 736 419 864 463 960 441 C 1056 463 1184 419 1280 441 L 1280 720 L 0 720 Z" fill="#3aa0bb" opacity="0.8"/><path d="M0 531 C 96 561 224 501 320 531 C 416 501 544 561 640 531 C 736 561 864 501 960 531 C 1056 501 1184 561 1280 531 L 1280 720 L 0 720 Z" fill="#3aa0bb" opacity="0.6"/><path d="M0 631 C 96 591 224 671 320 631 C 416 671 544 591 640 631 C 736 591 864 671 960 631 C 1056 671 1184 591 1280 631 L 1280 720 L 0 720 Z" fill="#ffffff" opacity="0.5"/>
  <text x="48" y="624" font-family="DM Sans, system-ui, sans-serif" font-size="26" font-weight="700" fill="#ffffff" opacity="0.85" letter-spacing="6">A CORUNA</text>
  <text x="46" y="676" font-family="DM Sans, system-ui, sans-serif" font-size="58" font-weight="900" fill="#ffffff">Pantin · 2</text>
</svg>