<svg xmlns="http://www.w3.org/2000/svg" width="880" height="480" viewBox="0 0 880 480" role="img" aria-label="RAM to HOST N tenants (MiB, lower better) — the multi-tenancy reality">
  <rect x="0" y="0" width="880" height="480" fill="#ffffff"/>
  <defs>
    <pattern id="hatch" width="6" height="6" patternUnits="userSpaceOnUse" patternTransform="rotate(45)">
      <line x1="0" y1="0" x2="0" y2="6" stroke="#ffffff" stroke-width="2" stroke-opacity="0.6"/>
    </pattern>
    <pattern id="dots" width="5" height="5" patternUnits="userSpaceOnUse">
      <circle cx="1.5" cy="1.5" r="1" fill="#ffffff" fill-opacity="0.7"/>
    </pattern>
  </defs>
  <text x="440" y="28" text-anchor="middle" font-family="sans-serif" font-size="18" font-weight="bold" fill="#0f172a">RAM to HOST N tenants (MiB, lower better) — the multi-tenancy reality</text>
  <text x="440" y="48" text-anchor="middle" font-family="sans-serif" font-size="12" fill="#64748b">(MiB)</text>

  <line x1="74" y1="389.5" x2="670" y2="389.5" stroke="#e2e8f0" stroke-width="1"/>
  <text x="66" y="393.5" text-anchor="end" font-family="sans-serif" font-size="11" fill="#64748b">1</text>
  <line x1="74" y1="360.6" x2="670" y2="360.6" stroke="#e2e8f0" stroke-width="1"/>
  <text x="66" y="364.6" text-anchor="end" font-family="sans-serif" font-size="11" fill="#64748b">10</text>
  <line x1="74" y1="311.1" x2="670" y2="311.1" stroke="#e2e8f0" stroke-width="1"/>
  <text x="66" y="315.1" text-anchor="end" font-family="sans-serif" font-size="11" fill="#64748b">100</text>
  <line x1="74" y1="261.7" x2="670" y2="261.7" stroke="#e2e8f0" stroke-width="1"/>
  <text x="66" y="265.7" text-anchor="end" font-family="sans-serif" font-size="11" fill="#64748b">1,000</text>
  <line x1="74" y1="212.3" x2="670" y2="212.3" stroke="#e2e8f0" stroke-width="1"/>
  <text x="66" y="216.3" text-anchor="end" font-family="sans-serif" font-size="11" fill="#64748b">10,000</text>
  <line x1="74" y1="162.9" x2="670" y2="162.9" stroke="#e2e8f0" stroke-width="1"/>
  <text x="66" y="166.9" text-anchor="end" font-family="sans-serif" font-size="11" fill="#64748b">100,000</text>
  <line x1="74" y1="113.4" x2="670" y2="113.4" stroke="#e2e8f0" stroke-width="1"/>
  <text x="66" y="117.4" text-anchor="end" font-family="sans-serif" font-size="11" fill="#64748b">1,000,000</text>
  <line x1="74" y1="64.0" x2="670" y2="64.0" stroke="#e2e8f0" stroke-width="1"/>
  <text x="66" y="68.0" text-anchor="end" font-family="sans-serif" font-size="11" fill="#64748b">10,000,000</text>
  <line x1="74.0" y1="64" x2="74.0" y2="410" stroke="#f1f5f9" stroke-width="1"/>
  <text x="74.0" y="428" text-anchor="middle" font-family="sans-serif" font-size="11" fill="#475569">10,000</text>
  <line x1="490.6" y1="64" x2="490.6" y2="410" stroke="#f1f5f9" stroke-width="1"/>
  <text x="490.6" y="428" text-anchor="middle" font-family="sans-serif" font-size="11" fill="#475569">50,000</text>
  <line x1="670.0" y1="64" x2="670.0" y2="410" stroke="#f1f5f9" stroke-width="1"/>
  <text x="670.0" y="428" text-anchor="middle" font-family="sans-serif" font-size="11" fill="#475569">100,000</text>
  <line x1="74" y1="64" x2="74" y2="410" stroke="#94a3b8" stroke-width="1.5"/>
  <line x1="74" y1="410" x2="670" y2="410" stroke="#94a3b8" stroke-width="1.5"/>
  <text x="372" y="454" text-anchor="middle" font-family="sans-serif" font-size="12" fill="#475569">tenant count (log scale)</text>
  <text x="18" y="237" text-anchor="middle" font-family="sans-serif" font-size="12" fill="#475569" transform="rotate(-90 18 237)">MiB (log)</text>
  <polyline points="74.0,389.5 490.6,386.4 670.0,386.4" fill="none" stroke="#475569" stroke-width="2.5"  stroke-linejoin="round"/>
  <circle cx="74.0" cy="389.5" r="3.5" fill="#475569" fill-opacity="1" stroke="#fff" stroke-width="1"/>
  <circle cx="490.6" cy="386.4" r="3.5" fill="#475569" fill-opacity="1" stroke="#fff" stroke-width="1"/>
  <circle cx="670.0" cy="386.4" r="3.5" fill="#475569" fill-opacity="1" stroke="#fff" stroke-width="1"/>
  <text x="676.0" y="389.4" font-family="sans-serif" font-size="10" fill="#475569">3</text>
  <polyline points="74.0,157.0 490.6,122.5 670.0,107.6" fill="none" stroke="#be123c" stroke-width="2.5" stroke-dasharray="2 3" stroke-linejoin="round"/>
  <circle cx="74.0" cy="157.0" r="3.5" fill="#be123c" fill-opacity="0.4" stroke="#fff" stroke-width="1"/>
  <circle cx="490.6" cy="122.5" r="3.5" fill="#be123c" fill-opacity="0.4" stroke="#fff" stroke-width="1"/>
  <circle cx="670.0" cy="107.6" r="3.5" fill="#be123c" fill-opacity="0.4" stroke="#fff" stroke-width="1"/>
  <text x="676.0" y="110.6" font-family="sans-serif" font-size="10" fill="#be123c">1,311,000</text>
  <line x1="688" y1="70" x2="714" y2="70" stroke="#475569" stroke-width="2.5" />
  <text x="720" y="74" font-family="sans-serif" font-size="11" fill="#334155">binocle (one process, SHA…</text>
  <line x1="688" y1="90" x2="714" y2="90" stroke="#be123c" stroke-width="2.5" stroke-dasharray="2 3"/>
  <text x="720" y="94" font-family="sans-serif" font-size="11" fill="#334155">PocketBase (1 instance / … (model)</text>

</svg>